Coordinates
version=1
nRows=7
nColumns=33
inDegrees=yes

Units are S.I. units (second, meters, Newtons, ...)
Angles are in degrees.

endheader
time	ground_thorax_rot_x	ground_thorax_rot_y	ground_thorax_rot_z	ground_thorax_tx	ground_thorax_ty	ground_thorax_tz	clav_prot_r	clav_elev_r	scapula_abduction_r	scapula_elevation_r	scapula_upward_rot_r	scapula_winging_r	shoulder_elv_r	plane_of_elev_r	axial_rot_r	elbow_flexion_r	pro_sup_r	wrist_flex_r	wrist_dev_r	clav_prot_l	clav_elev_l	scapula_abduction_l	scapula_elevation_l	scapula_upward_rot_l	scapula_winging_l	shoulder_elv_l	plane_of_elev_l	axial_rot_l	elbow_flexion_l	pro_sup_l	wrist_flex_l	wrist_dev_l
      6.66000000	     29.01568002	     28.91940736	     43.38430582	    -30.01183236	    829.31714340	    -41.80654013	     12.63849530	     34.28194747	     29.36957678	     45.00000000	    -45.00000000	   1714.37870300	   1512.31638003	     24.10428787	    179.99999979	   2880.38997893	    172.36980372	     14.04162878	     15.31272148	     -9.30549125	    -45.00000000	    -40.07690913	     45.00000000	    -23.37844862	   2987.69133046	  -4415.36454844	    141.93604708	    179.99999979	   2158.70009805	   -316.74719948	     15.50268360	    -23.61693054
      6.67000000	     28.67798071	     29.14758561	     44.01334241	    -27.05202439	    827.80153494	    -41.74743124	     12.78296813	     34.28039392	     29.38683836	     45.00000000	    -45.00000000	   1714.62183926	   1512.19880173	     23.97955651	    179.99999979	   2880.36213885	    173.01241325	     13.92457166	     15.30079609	     -9.63535812	    -45.00000000	    -39.96858923	     45.00000000	    -23.43175537	   2987.62450908	  -4415.42170776	    142.02440151	    179.99999979	   2158.73131561	   -316.67833818	     15.51481647	    -23.33918566
      6.68000000	     28.73765002	     29.23088405	     44.19814763	    -24.06023721	    826.24626545	    -41.68127661	     13.00953917	     34.51136332	     29.52937894	     45.00000000	    -45.00000000	   1714.60903775	   1512.12010117	     24.21603291	    179.99999979	   2880.34698234	    173.80079693	     13.93532029	     15.13327449	     -9.97363644	    -45.00000000	    -39.58965119	     45.00000000	    -23.12630344	   2987.50083844	  -4415.70992135	    141.93447464	    179.99999979	   2158.36242231	   -316.54461690	     15.66620252	    -23.24701379
      6.69000000	     28.47184141	     29.48933953	     44.72518892	    -21.04847569	    824.64770847	    -41.60333967	     12.91836785	     34.44348205	     29.52887625	     45.00000000	    -45.00000000	   1714.87219273	   1512.08303132	     24.07331090	    179.99999979	   2880.38201143	    174.61149650	     13.86463371	     15.10473756	    -10.04526860	    -45.00000000	    -39.54440471	     45.00000000	    -23.22936552	   2987.52694269	  -4415.93605054	    141.89317097	    179.99999979	   2158.30302088	   -316.44291047	     15.70738819	    -23.05676169
      6.70000000	     28.22893283	     29.68638645	     45.24282841	    -18.02288789	    823.00176298	    -41.50928389	     13.02367380	     34.48560190	     29.51310795	     45.00000000	    -45.00000000	   1715.10873334	   1511.99612085	     24.00630271	    179.99999979	   2880.37412538	    175.43255508	     13.81209967	     15.04966479	    -10.34377046	    -45.00000000	    -39.37717721	     45.00000000	    -23.29351871	   2987.46891383	  -4416.13785772	    141.93038587	    179.99999979	   2158.18387410	   -316.33074587	     15.71723686	    -22.83131885
      6.71000000	     28.00494845	     29.88907024	     45.71641909	    -14.98863477	    821.30823287	    -41.39533995	     13.05241786	     34.54986933	     29.49614642	     45.00000000	    -45.00000000	   1715.31158408	   1511.92021572	     23.99040329	    179.99999979	   2880.43343779	    176.27742700	     13.76867890	     14.95808898	    -10.59433600	    -45.00000000	    -39.19783970	     45.00000000	    -23.25235937	   2987.43890835	  -4416.36171323	    141.91439316	    179.99999979	   2157.99262544	   -316.23464976	     15.74620383	    -22.63118953
      6.72000000	     27.83039369	     30.08929993	     46.14363027	    -11.95299577	    819.57208827	    -41.25886007	     13.17203884	     34.60876089	     29.48755609	     45.00000000	    -45.00000000	   1715.49377941	   1511.84371709	     23.95076596	    179.99999979	   2880.49358559	    177.13029772	     13.72832355	     14.87124958	    -10.87572250	    -45.00000000	    -38.93504189	     45.00000000	    -23.30039632	   2987.38659343	  -4416.57604631	    141.87893641	    179.99999979	   2157.82383982	   -316.13113808	     15.75942021	    -22.44337673
